<?xml version="1.0" encoding="UTF-8" standalone="no"?>
<!DOCTYPE svg PUBLIC "-//W3C//DTD SVG 1.1//EN" "http://www.w3.org/Graphics/SVG/1.1/DTD/svg11.dtd">
<svg width="100%" height="100%" viewBox="0 0 922 488" version="1.1" xmlns="http://www.w3.org/2000/svg" xmlns:xlink="http://www.w3.org/1999/xlink" xml:space="preserve" xmlns:serif="http://www.serif.com/" style="fill-rule:evenodd;clip-rule:evenodd;stroke-linejoin:round;stroke-miterlimit:2;">
    <g transform="matrix(0.095238,-1.4585e-16,-1.4585e-16,-0.095238,-25.5553,510.491)">
        <path d="M6122,5355C6122,5352 6084,5350 6038,5351C5991,5351 5953,5349 5953,5345C5953,5342 5912,5338 5862,5337C5768,5336 5660,5327 5636,5318C5629,5316 5595,5311 5561,5308C5526,5306 5495,5297 5490,5290C5484,5280 5481,5280 5481,5289C5481,5297 5470,5299 5452,5296C5436,5293 5409,5289 5392,5287C5363,5285 5338,5281 5255,5265C5238,5262 5207,5257 5187,5254C5167,5252 5131,5247 5109,5244C5086,5241 5058,5230 5046,5221C5035,5211 5029,5208 5032,5214C5040,5228 4929,5221 4900,5206C4890,5200 4871,5194 4860,5192C4848,5190 4832,5179 4824,5169C4811,5153 4810,5153 4815,5168C4821,5186 4761,5185 4725,5166C4716,5161 4673,5152 4630,5146C4525,5131 4510,5128 4482,5113C4443,5092 4389,5082 4389,5096C4389,5103 4384,5101 4379,5093C4373,5084 4368,5080 4368,5084C4368,5089 4328,5082 4274,5066C4169,5036 4074,5012 4074,5016C4074,5019 4068,5016 4060,5010C4052,5003 4043,5001 4039,5005C4035,5009 4032,5007 4032,5001C4032,4994 4024,4991 4014,4992C4004,4994 3979,4989 3959,4982C3888,4958 3843,4944 3814,4939C3798,4936 3784,4930 3782,4925C3780,4920 3770,4918 3760,4921C3749,4924 3726,4919 3708,4909C3690,4900 3673,4893 3670,4893C3632,4894 3622,4891 3629,4881C3633,4874 3630,4871 3621,4874C3613,4877 3590,4873 3570,4866C3550,4858 3504,4844 3468,4834C3432,4825 3402,4813 3402,4809C3402,4805 3389,4801 3374,4801C3359,4801 3340,4793 3332,4782C3324,4772 3318,4768 3318,4774C3318,4781 3291,4775 3254,4760C3219,4746 3180,4732 3167,4730C3155,4727 3135,4721 3124,4715C3112,4710 3072,4695 3035,4683C2997,4670 2933,4646 2893,4629C2852,4611 2811,4596 2802,4594C2792,4592 2759,4579 2728,4565C2629,4520 2609,4511 2604,4510C2588,4508 2472,4447 2465,4437C2461,4431 2457,4430 2457,4435C2457,4440 2448,4437 2438,4427C2427,4418 2416,4413 2413,4416C2406,4422 2331,4388 2331,4378C2331,4375 2324,4372 2316,4372C2308,4372 2264,4353 2219,4331C2174,4309 2133,4291 2129,4292C2125,4294 2121,4289 2121,4282C2121,4276 2118,4273 2114,4277C2111,4280 2095,4275 2080,4264C2065,4254 2039,4238 2021,4230C1978,4209 1845,4136 1832,4126C1826,4122 1789,4101 1748,4079C1708,4058 1672,4036 1668,4030C1665,4024 1659,4020 1655,4021C1639,4023 1585,3988 1591,3979C1595,3973 1594,3969 1589,3970C1571,3973 1555,3969 1541,3956C1516,3932 1465,3899 1431,3884C1412,3876 1397,3863 1396,3856C1396,3848 1392,3844 1387,3848C1382,3851 1376,3850 1374,3845C1372,3840 1337,3814 1297,3786C1212,3727 1122,3655 1110,3636C1105,3628 1097,3623 1092,3623C1087,3623 1064,3604 1039,3581C1015,3557 991,3539 985,3539C980,3539 954,3518 929,3494C904,3469 854,3421 817,3386C781,3351 729,3297 704,3266C678,3235 639,3190 617,3167C595,3144 578,3118 578,3111C578,3103 573,3099 567,3103C561,3106 557,3105 557,3099C557,3079 509,3014 494,3014C486,3014 482,3011 486,3007C489,3004 483,2991 472,2979C447,2952 368,2800 368,2779C368,2770 362,2761 355,2759C349,2757 343,2740 343,2722C343,2703 341,2690 338,2693C329,2702 285,2577 276,2522C259,2408 270,2247 302,2155C318,2107 334,2070 337,2073C339,2075 342,2067 343,2055C345,2016 397,1889 420,1864C431,1852 438,1838 435,1835C432,1832 439,1823 451,1817C463,1811 473,1799 473,1792C473,1784 487,1764 504,1747C521,1731 535,1713 535,1707C536,1691 613,1618 623,1625C629,1628 630,1625 626,1619C618,1606 728,1491 747,1491C753,1491 755,1487 751,1482C746,1473 764,1461 779,1463C783,1464 797,1450 811,1433C825,1414 842,1402 853,1405C866,1407 870,1404 865,1392C860,1380 863,1377 876,1382C888,1386 891,1384 887,1373C881,1357 929,1329 946,1339C951,1343 959,1338 962,1328C966,1319 975,1314 983,1317C990,1320 999,1313 1003,1301C1007,1290 1014,1283 1018,1286C1023,1289 1031,1282 1034,1270C1038,1258 1044,1250 1047,1254C1050,1257 1079,1245 1112,1228C1144,1211 1176,1197 1183,1197C1189,1197 1200,1190 1208,1181C1215,1173 1231,1165 1245,1166C1258,1166 1276,1158 1285,1150C1293,1141 1306,1134 1312,1134C1318,1134 1323,1130 1323,1124C1323,1119 1332,1117 1344,1120C1356,1124 1365,1121 1365,1114C1365,1107 1369,1104 1374,1107C1380,1110 1387,1106 1390,1097C1393,1089 1408,1082 1422,1082C1437,1082 1449,1076 1449,1070C1449,1064 1455,1061 1462,1063C1469,1065 1483,1058 1493,1046C1504,1033 1511,1029 1512,1037C1512,1046 1520,1043 1535,1029C1548,1018 1563,1008 1570,1008C1576,1008 1587,1003 1593,996C1599,990 1625,983 1649,981C1674,979 1697,973 1701,966C1705,959 1715,953 1723,952C1731,951 1744,946 1751,941C1758,937 1769,936 1774,940C1780,943 1785,942 1785,936C1785,931 1794,924 1806,921C1818,918 1827,921 1827,928C1827,934 1832,933 1837,924C1843,915 1848,912 1848,916C1848,920 1867,917 1889,908C1925,896 1932,896 1943,909C1950,917 1963,923 1973,923C1987,922 1986,921 1971,917C1949,911 1952,887 1975,887C1983,887 1992,884 1996,879C1999,875 2018,870 2038,868C2062,866 2073,860 2070,850C2068,838 2070,838 2079,847C2092,860 2157,847 2181,827C2191,820 2194,820 2194,830C2194,838 2199,839 2208,833C2215,828 2230,824 2242,824C2253,825 2265,821 2269,817C2272,812 2294,807 2319,806C2343,804 2363,799 2363,793C2364,787 2368,792 2373,803C2378,815 2382,818 2383,810C2383,798 2386,798 2400,809C2413,820 2416,820 2413,808C2411,797 2418,794 2435,796C2449,797 2465,792 2469,785C2476,775 2478,775 2478,787C2478,798 2482,798 2497,784C2508,774 2535,764 2558,761C2580,759 2614,754 2633,752C2655,748 2667,751 2667,759C2667,768 2670,768 2675,760C2686,745 2720,734 2720,746C2720,751 2724,756 2730,756C2736,756 2741,749 2741,740C2741,731 2745,726 2751,730C2757,733 2759,741 2756,746C2747,761 2759,758 2788,739C2805,728 2814,726 2814,734C2814,741 2819,744 2825,740C2843,729 2982,726 2975,738C2972,743 2980,741 2994,734C3008,726 3035,719 3056,718C3076,717 3111,712 3133,708C3159,703 3172,704 3168,710C3164,717 3174,719 3193,716C3210,714 3226,707 3229,702C3239,686 3278,692 3293,711C3302,724 3307,725 3307,716C3307,708 3312,705 3318,709C3324,712 3329,711 3329,707C3329,693 3422,704 3425,719C3428,729 3441,728 3484,714C3534,697 3540,697 3548,713C3557,728 3561,727 3583,706C3602,688 3611,685 3620,695C3630,705 3633,705 3633,695C3633,688 3638,683 3644,683C3649,683 3654,689 3654,697C3654,706 3663,709 3680,706C3698,703 3707,706 3707,715C3707,727 3710,727 3720,714C3734,697 3767,693 3788,707C3796,712 3801,709 3801,698C3801,683 3802,682 3817,697C3834,714 3886,720 3899,707C3909,697 3948,695 3948,703C3948,707 3976,709 4011,707C4046,705 4083,707 4093,713C4104,719 4118,719 4129,713C4140,707 4148,707 4152,713C4156,719 4166,721 4176,717C4187,713 4190,715 4185,723C4181,729 4183,735 4189,735C4195,735 4200,731 4200,727C4200,720 4223,719 4265,724C4269,724 4270,731 4267,739C4264,748 4271,755 4289,758C4317,764 4323,757 4305,739C4298,732 4304,729 4323,730C4340,730 4351,736 4350,743C4348,750 4355,756 4364,756C4378,756 4379,759 4368,771C4361,780 4359,792 4362,798C4372,813 4344,811 4328,796C4321,789 4300,782 4281,780C4263,778 4224,774 4195,771C4154,767 4146,768 4161,777C4171,783 4184,786 4190,782C4203,774 4242,786 4242,798C4242,804 4201,805 4145,801C4091,798 4018,795 3982,796C3921,797 3915,795 3906,771C3895,742 3880,738 3871,761C3868,769 3873,778 3883,780C3894,783 3890,786 3873,786C3850,787 3846,784 3850,767C3854,755 3851,746 3844,746C3838,746 3833,757 3833,770L3833,795L3667,796C3463,797 3153,806 3070,814C3036,817 2961,824 2903,830C2846,836 2770,843 2735,846C2701,849 2644,858 2609,866C2575,875 2530,883 2510,886C2489,888 2461,893 2447,897C2432,900 2408,905 2394,907C2319,919 2288,927 2283,936C2280,941 2274,943 2269,941C2265,938 2243,940 2220,946C2197,952 2167,958 2153,961C2138,963 2100,973 2069,982C2037,991 2001,1000 1990,1002C1946,1010 1810,1053 1782,1067C1767,1075 1751,1081 1748,1081C1738,1079 1591,1136 1581,1146C1575,1151 1563,1155 1553,1155C1543,1155 1528,1162 1520,1170C1512,1178 1480,1195 1448,1209C1417,1222 1372,1244 1349,1257C1326,1269 1291,1288 1271,1298C1250,1308 1230,1322 1226,1328C1222,1334 1218,1335 1218,1330C1218,1319 1155,1356 1155,1367C1155,1372 1148,1376 1139,1376C1131,1376 1124,1380 1124,1386C1124,1392 1117,1397 1109,1397C1102,1397 1087,1405 1078,1416C1068,1427 1041,1444 1018,1455C996,1466 977,1481 977,1489C977,1496 968,1505 959,1509C949,1513 918,1539 889,1566C861,1594 834,1617 829,1617C815,1617 772,1663 745,1708C732,1730 710,1760 696,1773C644,1827 481,2198 498,2224C500,2229 498,2252 493,2275C480,2335 482,2512 497,2538C499,2543 505,2560 510,2578C520,2618 519,2614 536,2651C543,2669 551,2690 552,2699C553,2707 573,2745 597,2782C621,2818 640,2853 640,2857C640,2868 685,2933 707,2956C717,2965 724,2980 724,2988C724,2996 729,3003 734,3003C740,3003 747,3012 751,3024C754,3035 777,3066 801,3092C873,3168 919,3226 916,3237C914,3242 917,3243 923,3240C934,3233 1012,3306 1022,3332C1025,3342 1032,3348 1037,3347C1042,3345 1062,3361 1083,3381C1103,3401 1150,3444 1187,3475C1224,3507 1257,3535 1260,3539C1263,3542 1288,3561 1315,3580C1343,3600 1365,3619 1365,3623C1365,3627 1384,3638 1407,3649C1430,3659 1449,3674 1449,3682C1449,3690 1453,3696 1459,3696C1470,3696 1546,3746 1615,3798C1640,3817 1665,3833 1670,3833C1675,3833 1692,3844 1708,3859C1723,3874 1747,3888 1761,3892C1774,3895 1785,3902 1785,3907C1785,3912 1789,3917 1794,3917C1800,3917 1835,3935 1873,3959C1911,3982 1945,4001 1949,4001C1952,4001 1982,4017 2015,4036C2143,4114 2335,4211 2575,4319C2596,4329 2616,4342 2620,4347C2623,4353 2634,4358 2642,4358C2651,4358 2681,4369 2709,4383C2737,4397 2763,4405 2766,4402C2769,4399 2772,4402 2772,4408C2772,4415 2778,4421 2785,4421C2792,4421 2834,4435 2877,4453C3161,4570 3702,4758 3922,4817C3968,4830 4048,4852 4100,4867C4152,4881 4206,4896 4219,4899C4232,4902 4300,4919 4371,4936C4442,4954 4509,4970 4520,4972C4532,4973 4584,4985 4636,4998C4688,5010 4744,5023 4762,5026C4779,5029 4803,5035 4814,5040C4826,5045 4852,5051 4872,5054C4892,5056 4936,5064 4969,5070C5113,5099 5144,5104 5188,5109C5213,5112 5277,5121 5329,5130C5381,5139 5440,5148 5460,5151C5538,5160 5645,5176 5674,5182C5691,5185 5751,5190 5807,5191C5863,5193 5914,5198 5920,5202C5931,5208 6258,5219 6421,5218C6727,5217 7157,5192 7235,5171C7255,5166 7335,5154 7382,5150C7402,5149 7425,5145 7434,5142C7443,5138 7492,5131 7544,5124C7596,5117 7671,5102 7710,5090C7749,5078 7784,5072 7788,5075C7791,5079 7800,5077 7807,5071C7814,5066 7847,5056 7881,5050C7915,5044 7953,5035 7964,5030C7976,5025 8028,5009 8080,4993C8132,4977 8191,4958 8211,4950C8251,4935 8281,4926 8316,4919C8329,4917 8345,4910 8351,4905C8358,4900 8375,4892 8390,4888C8404,4884 8437,4871 8463,4859C8489,4848 8527,4832 8547,4823C8567,4815 8591,4804 8600,4799C8608,4794 8665,4761 8726,4726C8786,4691 8862,4646 8893,4626C8925,4605 8956,4589 8962,4589C8969,4589 8987,4576 9003,4562C9019,4547 9050,4523 9072,4510C9094,4496 9124,4474 9138,4461C9153,4447 9190,4415 9220,4389C9286,4333 9290,4328 9371,4237C9406,4197 9441,4157 9450,4148C9459,4138 9467,4125 9468,4118C9470,4111 9487,4083 9507,4056C9559,3983 9634,3828 9661,3740C9668,3716 9678,3696 9683,3696C9688,3696 9691,3692 9688,3688C9685,3684 9693,3640 9704,3591C9756,3368 9709,3023 9598,2814C9553,2730 9469,2590 9454,2575C9446,2567 9440,2557 9440,2553C9440,2548 9431,2536 9421,2525C9411,2513 9380,2474 9352,2436C9229,2270 8928,1967 8757,1837C8668,1769 8647,1750 8650,1741C8651,1735 8649,1733 8644,1736C8639,1739 8618,1726 8597,1707C8577,1688 8553,1670 8545,1667C8537,1664 8502,1637 8467,1608C8431,1578 8397,1554 8391,1554C8385,1554 8374,1548 8367,1541C8359,1534 8335,1518 8313,1507C8291,1495 8259,1473 8243,1458C8226,1443 8209,1433 8206,1437C8202,1440 8197,1432 8193,1419C8189,1403 8184,1399 8180,1407C8174,1415 8155,1408 8115,1383C8050,1342 7971,1296 7915,1269C7894,1258 7873,1245 7870,1239C7866,1233 7856,1229 7846,1228C7837,1228 7822,1222 7813,1214C7804,1207 7780,1194 7760,1186C7739,1178 7720,1169 7718,1166C7715,1163 7687,1149 7657,1135C7627,1121 7602,1105 7602,1101C7602,1096 7598,1093 7594,1094C7576,1100 7518,1067 7518,1051C7518,1040 7515,1038 7510,1046C7505,1055 7475,1046 7413,1017C7364,994 7288,960 7245,942C7202,924 7165,906 7163,901C7161,896 7153,893 7144,893C7136,893 7130,889 7130,884C7130,879 7124,874 7116,874C7061,867 6996,847 6938,818C6917,807 6886,798 6869,798C6852,798 6832,791 6825,783C6818,774 6809,768 6806,768C6802,769 6796,768 6794,767C6786,764 6749,756 6725,752C6714,751 6697,746 6689,742C6675,736 6636,727 6612,725C6607,725 6607,719 6611,712C6615,706 6614,703 6608,706C6599,712 6550,700 6379,651C6278,622 6268,619 6230,614C6211,611 6184,604 6169,598C6154,593 6130,588 6116,588C6102,588 6090,583 6090,577C6090,570 6084,567 6077,570C6070,573 6050,569 6032,562C6015,555 5985,549 5966,548C5947,548 5925,542 5917,536C5909,529 5877,522 5847,519C5816,516 5777,510 5759,505C5731,496 5668,486 5586,478C5572,476 5553,472 5544,469C5512,458 5401,443 5306,437C5271,435 5237,430 5232,427C5216,417 5162,410 5039,400C4979,395 4918,388 4904,384C4889,381 4830,375 4772,372C4715,369 4644,364 4615,362C4586,359 4539,355 4510,353C4431,346 4028,332 4017,335C4012,336 3886,339 3739,341C3497,345 3266,361 3061,389C2860,415 2818,421 2798,425C2787,427 2746,434 2708,440C2670,446 2632,453 2624,456C2608,462 2570,470 2504,482C2458,490 2348,522 2315,536C2304,541 2268,555 2237,568C2181,589 2079,640 2069,652C2066,655 2044,668 2021,682C1998,696 1975,712 1969,718C1963,725 1938,743 1914,759C1889,774 1862,799 1852,814C1843,828 1829,840 1821,840C1813,840 1789,861 1768,887C1732,929 1699,953 1717,923C1722,915 1717,914 1702,918C1685,924 1682,922 1686,909C1692,894 1675,887 1646,891C1641,892 1645,879 1654,861C1672,826 1862,630 1878,630C1884,630 1895,624 1902,617C1921,599 2028,546 2045,546C2052,546 2058,542 2058,538C2058,534 2081,522 2108,511C2135,501 2170,485 2186,477C2202,468 2218,462 2223,463C2227,465 2245,460 2263,452C2292,441 2420,403 2464,394C2475,392 2516,382 2557,373C2597,364 2644,355 2662,352C2679,349 2712,343 2735,337C2782,325 2909,308 3019,299C3059,295 3111,288 3134,283C3157,278 3224,271 3281,267C3339,263 3410,259 3439,257C3683,241 4165,235 4368,246C4617,259 4767,268 4877,277C4918,281 4981,286 5018,289C5054,291 5104,296 5128,299C5152,302 5219,309 5278,315C5337,321 5413,331 5446,337C5480,343 5529,349 5555,352C5580,354 5635,364 5675,373C5770,394 5807,401 5830,402C5840,403 5849,406 5849,409C5849,412 5859,415 5872,416C5918,418 5959,424 5968,428C5973,431 5994,435 6015,437C6036,438 6063,442 6074,445C6137,459 6159,466 6164,474C6167,479 6189,484 6214,486C6238,488 6261,493 6265,497C6269,501 6283,504 6296,504C6309,504 6323,509 6326,514C6329,520 6339,522 6347,518C6355,515 6379,521 6401,531C6422,542 6452,551 6467,551C6500,553 6573,576 6591,591C6599,596 6605,598 6605,595C6605,592 6624,596 6647,604C6671,612 6693,619 6697,618C6701,617 6708,618 6712,620C6716,621 6724,623 6728,624C6732,626 6743,629 6752,633C6760,636 6781,642 6799,645C6870,660 6884,665 6901,680C6911,689 6926,693 6935,689C6943,686 6953,688 6957,694C6960,699 6967,701 6972,698C6977,695 6984,698 6988,703C6991,709 6999,712 7004,708C7010,705 7014,706 7014,711C7014,715 7029,720 7048,722C7067,723 7087,730 7093,738C7107,757 7139,770 7174,769C7190,769 7203,773 7203,778C7203,783 7209,784 7217,781C7225,778 7239,783 7249,793C7258,802 7266,807 7266,803C7266,800 7291,811 7322,829C7353,846 7384,861 7391,861C7398,861 7414,871 7426,882C7439,894 7455,901 7463,898C7471,895 7479,899 7482,907C7485,915 7516,927 7550,935C7585,942 7623,957 7635,968C7651,981 7661,984 7665,976C7670,969 7675,974 7679,987C7684,1006 7690,1009 7711,1004C7728,1000 7738,1003 7742,1013C7745,1021 7764,1031 7784,1035C7805,1038 7824,1048 7827,1057C7830,1065 7837,1070 7843,1066C7857,1058 7896,1083 7896,1100C7896,1108 7900,1112 7906,1108C7911,1105 7918,1108 7921,1116C7924,1123 7926,1121 7927,1110C7927,1099 7932,1094 7938,1097C7944,1101 7946,1109 7942,1115C7938,1122 7940,1124 7946,1120C7968,1106 8068,1164 8111,1215C8127,1234 8144,1247 8149,1244C8154,1240 8164,1241 8172,1246C8179,1250 8194,1256 8206,1257C8217,1259 8231,1266 8237,1272C8245,1281 8243,1282 8229,1278C8219,1274 8211,1276 8211,1282C8211,1289 8221,1291 8237,1287C8252,1283 8264,1285 8264,1291C8264,1297 8267,1301 8271,1300C8286,1295 8327,1324 8327,1339C8327,1347 8333,1351 8341,1348C8350,1345 8361,1351 8367,1363C8373,1374 8389,1383 8402,1383C8429,1383 8505,1428 8551,1472C8568,1487 8594,1506 8609,1514C8624,1521 8643,1535 8652,1544C8661,1552 8681,1566 8697,1574C8713,1582 8726,1596 8726,1605C8726,1613 8728,1618 8732,1614C8744,1602 8795,1636 8820,1673C8834,1693 8849,1708 8854,1705C8869,1696 8935,1744 8952,1776C8961,1794 8973,1804 8980,1799C8987,1795 8989,1798 8985,1809C8981,1819 8983,1829 8988,1832C8993,1835 8999,1832 9002,1824C9005,1817 9013,1827 9020,1846C9029,1872 9035,1878 9042,1867C9049,1856 9051,1857 9051,1870C9051,1889 9103,1937 9124,1937C9132,1937 9140,1944 9143,1953C9147,1967 9146,1967 9135,1953C9124,1939 9123,1939 9127,1953C9130,1962 9140,1969 9149,1969C9159,1969 9172,1976 9177,1985C9183,1993 9187,1997 9187,1992C9187,1987 9200,1996 9216,2010C9232,2025 9248,2037 9251,2037C9255,2037 9263,2049 9270,2064C9279,2085 9279,2089 9270,2083C9263,2079 9267,2090 9280,2108C9296,2130 9310,2139 9322,2135C9333,2132 9335,2133 9328,2138C9312,2149 9365,2212 9394,2217C9404,2219 9419,2233 9426,2247C9433,2261 9439,2269 9439,2263C9439,2257 9451,2265 9466,2281C9482,2298 9490,2316 9486,2328C9481,2342 9482,2343 9490,2333C9497,2322 9513,2335 9557,2390C9624,2475 9664,2531 9656,2531C9653,2531 9662,2543 9677,2557C9692,2572 9701,2591 9698,2599C9695,2608 9698,2613 9705,2612C9712,2610 9716,2618 9715,2628C9713,2639 9717,2645 9725,2644C9733,2642 9738,2649 9736,2662C9733,2696 9771,2793 9789,2793C9794,2793 9796,2785 9792,2775C9788,2765 9788,2760 9792,2764C9804,2776 9880,2951 9873,2951C9870,2950 9873,2957 9879,2964C9885,2972 9891,2994 9893,3014C9894,3034 9899,3053 9903,3056C9908,3059 9915,3078 9918,3098C9925,3132 9924,3133 9909,3113C9893,3093 9892,3094 9897,3134C9910,3231 9914,3246 9926,3241C9941,3236 9945,3271 9943,3402C9943,3457 9938,3503 9932,3505C9927,3507 9923,3513 9923,3519C9923,3525 9927,3527 9931,3524C9936,3521 9938,3530 9936,3544C9933,3558 9927,3570 9924,3570C9916,3570 9912,3597 9912,3647C9912,3663 9901,3700 9886,3729C9871,3758 9859,3792 9859,3804C9859,3834 9811,3938 9797,3938C9792,3938 9784,3954 9780,3974C9776,3994 9769,4008 9764,4005C9759,4002 9755,4007 9755,4016C9754,4031 9735,4068 9710,4100C9686,4131 9650,4192 9650,4200C9650,4206 9645,4211 9640,4211C9634,4211 9627,4219 9624,4229C9616,4252 9404,4473 9390,4473C9384,4473 9373,4480 9366,4489C9358,4498 9350,4503 9347,4500C9344,4497 9336,4505 9330,4518C9323,4531 9285,4564 9245,4591C9205,4618 9165,4646 9156,4654C9133,4674 9072,4715 9064,4715C9061,4715 9050,4721 9041,4729C9032,4737 8999,4758 8967,4776C8935,4794 8876,4827 8835,4849C8793,4872 8741,4897 8719,4905C8697,4912 8658,4930 8634,4943C8609,4956 8587,4967 8584,4966C8581,4966 8560,4973 8539,4983C8491,5004 8454,5019 8426,5030C8415,5034 8391,5043 8374,5051C8356,5058 8326,5068 8306,5072C8285,5077 8234,5093 8192,5108C8149,5123 8105,5137 8094,5137C8083,5138 8075,5143 8075,5147C8075,5151 8068,5152 8060,5149C8052,5146 8030,5150 8010,5158C7991,5167 7956,5177 7933,5182C7910,5187 7888,5192 7886,5193C7883,5194 7865,5198 7846,5203C7827,5207 7809,5215 7806,5220C7803,5225 7796,5229 7790,5229C7784,5229 7782,5225 7785,5219C7789,5214 7778,5216 7762,5224C7746,5231 7714,5240 7690,5242C7666,5245 7643,5250 7637,5253C7632,5256 7602,5262 7570,5265C7493,5274 7446,5280 7403,5287C7382,5291 7335,5296 7298,5298C7260,5301 7221,5306 7211,5309C7170,5321 7069,5334 6956,5340C6910,5342 6834,5347 6788,5350C6679,5358 6686,5357 6586,5352C6539,5350 6497,5351 6493,5354C6486,5362 6122,5362 6122,5355ZM5702,5308C5702,5305 5699,5303 5696,5303C5693,5303 5691,5305 5691,5308C5691,5311 5693,5313 5696,5313C5699,5313 5702,5311 5702,5308ZM5618,5297C5618,5294 5615,5292 5612,5292C5609,5292 5607,5294 5607,5297C5607,5300 5609,5303 5612,5303C5615,5303 5618,5300 5618,5297ZM5261,5245C5261,5242 5258,5240 5255,5240C5252,5240 5250,5242 5250,5245C5250,5248 5252,5250 5255,5250C5258,5250 5261,5248 5261,5245ZM5124,5234C5124,5231 5122,5229 5119,5229C5116,5229 5114,5231 5114,5234C5114,5237 5116,5240 5119,5240C5122,5240 5124,5237 5124,5234ZM5177,5234C5177,5231 5174,5229 5171,5229C5168,5229 5166,5231 5166,5234C5166,5237 5168,5240 5171,5240C5174,5240 5177,5237 5177,5234ZM4893,5182C4893,5179 4891,5177 4888,5177C4885,5177 4883,5179 4883,5182C4883,5185 4885,5187 4888,5187C4891,5187 4893,5185 4893,5182ZM4736,5140C4736,5137 4733,5135 4730,5135C4727,5135 4725,5137 4725,5140C4725,5143 4727,5145 4730,5145C4733,5145 4736,5143 4736,5140ZM4515,5108C4515,5105 4513,5103 4510,5103C4507,5103 4505,5105 4505,5108C4505,5111 4507,5114 4510,5114C4513,5114 4515,5111 4515,5108ZM4208,5006C4209,4988 4207,4986 4200,4998C4195,5006 4193,5017 4196,5021C4204,5034 4206,5031 4208,5006ZM4228,5012C4224,5008 4221,5011 4221,5019C4221,5027 4224,5030 4228,5026C4232,5022 4232,5016 4228,5012ZM4505,5024C4505,5021 4502,5019 4499,5019C4496,5019 4494,5021 4494,5024C4494,5027 4496,5030 4499,5030C4502,5030 4505,5027 4505,5024ZM4011,4940C4011,4937 4009,4935 4006,4935C4003,4935 4001,4937 4001,4940C4001,4943 4003,4946 4006,4946C4009,4946 4011,4943 4011,4940ZM3539,4835C3539,4832 3536,4830 3533,4830C3530,4830 3528,4832 3528,4835C3528,4838 3530,4841 3533,4841C3536,4841 3539,4838 3539,4835ZM3220,4676C3216,4672 3210,4672 3206,4676C3202,4680 3205,4683 3213,4683C3221,4683 3224,4680 3220,4676ZM3003,4646C3003,4643 3001,4641 2998,4641C2995,4641 2993,4643 2993,4646C2993,4649 2995,4652 2998,4652C3001,4652 3003,4649 3003,4646ZM2720,4531C2720,4528 2717,4526 2714,4526C2711,4526 2709,4528 2709,4531C2709,4534 2711,4536 2714,4536C2717,4536 2720,4534 2720,4531ZM2751,4531C2751,4528 2749,4526 2746,4526C2743,4526 2741,4528 2741,4531C2741,4534 2743,4536 2746,4536C2749,4536 2751,4534 2751,4531ZM2688,4510C2688,4507 2686,4505 2683,4505C2680,4505 2678,4507 2678,4510C2678,4513 2680,4515 2683,4515C2686,4515 2688,4513 2688,4510ZM2762,4510C2762,4507 2759,4505 2756,4505C2753,4505 2751,4507 2751,4510C2751,4513 2753,4515 2756,4515C2759,4515 2762,4513 2762,4510ZM2688,4478C2688,4475 2686,4473 2683,4473C2680,4473 2678,4475 2678,4478C2678,4481 2680,4484 2683,4484C2686,4484 2688,4481 2688,4478ZM2594,4436C2594,4433 2591,4431 2588,4431C2585,4431 2583,4433 2583,4436C2583,4439 2585,4442 2588,4442C2591,4442 2594,4439 2594,4436ZM2499,4405C2499,4402 2497,4400 2494,4400C2491,4400 2489,4402 2489,4405C2489,4408 2491,4410 2494,4410C2497,4410 2499,4408 2499,4405ZM2457,4394C2457,4391 2455,4389 2452,4389C2449,4389 2447,4391 2447,4394C2447,4397 2449,4400 2452,4400C2455,4400 2457,4397 2457,4394ZM2352,4321C2352,4318 2350,4316 2347,4316C2344,4316 2342,4318 2342,4321C2342,4324 2344,4326 2347,4326C2350,4326 2352,4324 2352,4321ZM2310,4289C2310,4286 2308,4284 2305,4284C2302,4284 2300,4286 2300,4289C2300,4292 2302,4295 2305,4295C2308,4295 2310,4292 2310,4289ZM2153,4237C2153,4234 2150,4232 2147,4232C2144,4232 2142,4234 2142,4237C2142,4240 2144,4242 2147,4242C2150,4242 2153,4240 2153,4237ZM2195,4226C2195,4223 2192,4221 2189,4221C2186,4221 2184,4223 2184,4226C2184,4229 2186,4232 2189,4232C2192,4232 2195,4229 2195,4226ZM1953,4132C1953,4129 1951,4127 1948,4127C1945,4127 1943,4129 1943,4132C1943,4135 1945,4137 1948,4137C1951,4137 1953,4135 1953,4132ZM1932,4111C1932,4108 1930,4106 1927,4106C1924,4106 1922,4108 1922,4111C1922,4114 1924,4116 1927,4116C1930,4116 1932,4114 1932,4111ZM1869,4090C1869,4087 1867,4085 1864,4085C1861,4085 1859,4087 1859,4090C1859,4093 1861,4095 1864,4095C1867,4095 1869,4093 1869,4090ZM1838,4079C1838,4076 1835,4074 1832,4074C1829,4074 1827,4076 1827,4079C1827,4082 1829,4085 1832,4085C1835,4085 1838,4082 1838,4079ZM1628,3959C1628,3953 1622,3948 1616,3948C1610,3948 1608,3953 1612,3959C1615,3964 1620,3969 1623,3969C1625,3969 1628,3964 1628,3959ZM1645,3952C1641,3948 1638,3951 1638,3959C1638,3966 1641,3969 1645,3965C1649,3962 1649,3955 1645,3952ZM1638,3848C1638,3845 1636,3843 1633,3843C1630,3843 1628,3845 1628,3848C1628,3851 1630,3854 1633,3854C1636,3854 1638,3851 1638,3848ZM1491,3838C1491,3835 1489,3833 1486,3833C1483,3833 1481,3835 1481,3838C1481,3841 1483,3843 1486,3843C1489,3843 1491,3841 1491,3838ZM1320,3763C1316,3759 1313,3762 1313,3770C1313,3777 1316,3780 1320,3776C1323,3773 1323,3766 1320,3763ZM1460,3775C1460,3772 1457,3770 1454,3770C1451,3770 1449,3772 1449,3775C1449,3778 1451,3780 1454,3780C1457,3780 1460,3778 1460,3775ZM1491,3754C1491,3751 1489,3749 1486,3749C1483,3749 1481,3751 1481,3754C1481,3757 1483,3759 1486,3759C1489,3759 1491,3757 1491,3754ZM1271,3733C1271,3730 1268,3728 1265,3728C1262,3728 1260,3730 1260,3733C1260,3736 1262,3738 1265,3738C1268,3738 1271,3736 1271,3733ZM1407,3728C1407,3722 1405,3717 1402,3717C1400,3717 1395,3722 1391,3728C1388,3733 1390,3738 1396,3738C1402,3738 1407,3733 1407,3728ZM1281,3670C1281,3667 1279,3665 1276,3665C1273,3665 1271,3667 1271,3670C1271,3673 1273,3675 1276,3675C1279,3675 1281,3673 1281,3670ZM1162,3647C1158,3643 1155,3646 1155,3654C1155,3662 1158,3665 1162,3661C1166,3657 1166,3651 1162,3647ZM1155,3607C1155,3604 1153,3602 1150,3602C1147,3602 1145,3604 1145,3607C1145,3610 1147,3612 1150,3612C1153,3612 1155,3610 1155,3607ZM1166,3565C1166,3562 1163,3560 1160,3560C1157,3560 1155,3562 1155,3565C1155,3568 1157,3570 1160,3570C1163,3570 1166,3568 1166,3565ZM1145,3533C1145,3530 1142,3528 1139,3528C1136,3528 1134,3530 1134,3533C1134,3536 1136,3539 1139,3539C1142,3539 1145,3536 1145,3533ZM1082,3523C1082,3520 1079,3518 1076,3518C1073,3518 1071,3520 1071,3523C1071,3526 1073,3528 1076,3528C1079,3528 1082,3526 1082,3523ZM924,3439C924,3436 922,3434 919,3434C916,3434 914,3436 914,3439C914,3442 916,3444 919,3444C922,3444 924,3442 924,3439ZM910,3353C906,3349 903,3352 903,3360C903,3368 906,3371 910,3367C914,3363 914,3357 910,3353ZM9923,3260C9923,3257 9920,3255 9917,3255C9914,3255 9912,3257 9912,3260C9912,3263 9914,3266 9917,3266C9920,3266 9923,3263 9923,3260ZM9902,3082C9902,3079 9899,3077 9896,3077C9893,3077 9891,3079 9891,3082C9891,3085 9893,3087 9896,3087C9899,3087 9902,3085 9902,3082ZM9849,2924C9849,2921 9847,2919 9844,2919C9841,2919 9839,2921 9839,2924C9839,2927 9841,2930 9844,2930C9847,2930 9849,2927 9849,2924ZM543,2860C539,2856 536,2859 536,2867C536,2874 539,2877 543,2873C546,2870 546,2863 543,2860ZM9807,2819C9807,2816 9805,2814 9802,2814C9799,2814 9797,2816 9797,2819C9797,2822 9799,2825 9802,2825C9805,2825 9807,2822 9807,2819ZM326,2599C326,2596 323,2594 320,2594C317,2594 315,2596 315,2599C315,2602 317,2604 320,2604C323,2604 326,2602 326,2599ZM294,2473C294,2470 292,2468 289,2468C286,2468 284,2470 284,2473C284,2476 286,2478 289,2478C292,2478 294,2476 294,2473ZM9569,2423C9559,2403 9550,2394 9547,2402C9544,2410 9551,2425 9561,2437C9587,2466 9590,2462 9569,2423ZM441,2441C441,2438 439,2436 436,2436C433,2436 431,2438 431,2441C431,2444 433,2447 436,2447C439,2447 441,2444 441,2441ZM284,2368C284,2365 281,2363 278,2363C275,2363 273,2365 273,2368C273,2371 275,2373 278,2373C281,2373 284,2371 284,2368ZM452,2294C452,2291 449,2289 446,2289C443,2289 441,2291 441,2294C441,2297 443,2300 446,2300C449,2300 452,2297 452,2294ZM9398,2263C9398,2260 9395,2258 9392,2258C9389,2258 9387,2260 9387,2263C9387,2266 9389,2268 9392,2268C9395,2268 9398,2266 9398,2263ZM9419,2242C9419,2239 9416,2237 9413,2237C9410,2237 9408,2239 9408,2242C9408,2245 9410,2247 9413,2247C9416,2247 9419,2245 9419,2242ZM452,2126C452,2123 449,2121 446,2121C443,2121 441,2123 441,2126C441,2129 443,2132 446,2132C449,2132 452,2129 452,2126ZM9083,2084C9083,2081 9080,2079 9077,2079C9074,2079 9072,2081 9072,2084C9072,2087 9074,2090 9077,2090C9080,2090 9083,2087 9083,2084ZM9261,2064C9261,2061 9256,2056 9251,2053C9245,2049 9240,2051 9240,2057C9240,2063 9245,2069 9251,2069C9256,2069 9261,2066 9261,2064ZM441,1916C441,1913 439,1911 436,1911C433,1911 431,1913 431,1916C431,1919 433,1922 436,1922C439,1922 441,1919 441,1916ZM504,1864C504,1861 502,1859 499,1859C496,1859 494,1861 494,1864C494,1867 496,1869 499,1869C502,1869 504,1867 504,1864ZM578,1822C578,1819 575,1817 572,1817C569,1817 567,1819 567,1822C567,1825 569,1827 572,1827C575,1827 578,1825 578,1822ZM8894,1749C8894,1746 8889,1741 8883,1738C8877,1734 8873,1736 8873,1742C8873,1748 8877,1754 8883,1754C8889,1754 8894,1751 8894,1749ZM557,1696C557,1693 554,1691 551,1691C548,1691 546,1693 546,1696C546,1699 548,1701 551,1701C554,1701 557,1699 557,1696ZM578,1696C578,1693 575,1691 572,1691C569,1691 567,1693 567,1696C567,1699 569,1701 572,1701C575,1701 578,1699 578,1696ZM8810,1685C8810,1682 8807,1680 8804,1680C8801,1680 8799,1682 8799,1685C8799,1688 8801,1691 8804,1691C8807,1691 8810,1688 8810,1685ZM651,1612C651,1609 649,1607 646,1607C643,1607 641,1609 641,1612C641,1615 643,1617 646,1617C649,1617 651,1615 651,1612ZM8652,1559C8652,1556 8650,1554 8647,1554C8644,1554 8642,1556 8642,1559C8642,1562 8644,1565 8647,1565C8650,1565 8652,1562 8652,1559ZM8411,1538C8411,1535 8408,1533 8405,1533C8402,1533 8400,1535 8400,1538C8400,1541 8402,1544 8405,1544C8408,1544 8411,1541 8411,1538ZM924,1391C924,1388 922,1386 919,1386C916,1386 914,1388 914,1391C914,1394 916,1397 919,1397C922,1397 924,1394 924,1391ZM998,1339C998,1336 995,1334 992,1334C989,1334 987,1336 987,1339C987,1342 989,1344 992,1344C995,1344 998,1342 998,1339ZM8043,1318C8043,1315 8041,1313 8038,1313C8035,1313 8033,1315 8033,1318C8033,1321 8035,1323 8038,1323C8041,1323 8043,1321 8043,1318ZM1029,1307C1029,1304 1027,1302 1024,1302C1021,1302 1019,1304 1019,1307C1019,1310 1021,1313 1024,1313C1027,1313 1029,1310 1029,1307ZM1061,1286C1061,1283 1058,1281 1055,1281C1052,1281 1050,1283 1050,1286C1050,1289 1052,1292 1055,1292C1058,1292 1061,1289 1061,1286ZM1187,1276C1187,1273 1184,1271 1181,1271C1178,1271 1176,1273 1176,1276C1176,1279 1178,1281 1181,1281C1184,1281 1187,1279 1187,1276ZM1292,1192C1292,1189 1289,1187 1286,1187C1283,1187 1281,1189 1281,1192C1281,1195 1283,1197 1286,1197C1289,1197 1292,1195 1292,1192ZM1407,1150C1407,1147 1405,1145 1402,1145C1399,1145 1397,1147 1397,1150C1397,1153 1399,1155 1402,1155C1405,1155 1407,1153 1407,1150ZM7707,1139C7707,1136 7705,1134 7702,1134C7699,1134 7697,1136 7697,1139C7697,1142 7699,1145 7702,1145C7705,1145 7707,1142 7707,1139ZM1397,1129C1397,1126 1394,1124 1391,1124C1388,1124 1386,1126 1386,1129C1386,1132 1388,1134 1391,1134C1394,1134 1397,1132 1397,1129ZM1439,1097C1439,1094 1436,1092 1433,1092C1430,1092 1428,1094 1428,1097C1428,1100 1430,1103 1433,1103C1436,1103 1439,1100 1439,1097ZM7865,1076C7865,1073 7862,1071 7859,1071C7856,1071 7854,1073 7854,1076C7854,1079 7856,1082 7859,1082C7862,1082 7865,1079 7865,1076ZM7812,1055C7812,1052 7810,1050 7807,1050C7804,1050 7802,1052 7802,1055C7802,1058 7804,1061 7807,1061C7810,1061 7812,1058 7812,1055ZM1670,1013C1670,1010 1667,1008 1664,1008C1661,1008 1659,1010 1659,1013C1659,1016 1661,1019 1664,1019C1667,1019 1670,1016 1670,1013ZM1848,982C1848,979 1846,977 1843,977C1840,977 1838,979 1838,982C1838,985 1840,987 1843,987C1846,987 1848,985 1848,982ZM7592,971C7592,968 7589,966 7586,966C7583,966 7581,968 7581,971C7581,974 7583,977 7586,977C7589,977 7592,974 7592,971ZM1908,938C1904,934 1901,937 1901,945C1901,953 1904,956 1908,952C1911,948 1911,942 1908,938ZM2006,919C2006,916 2003,914 2000,914C1997,914 1995,916 1995,919C1995,922 1997,924 2000,924C2003,924 2006,922 2006,919ZM2100,888C2100,885 2095,880 2090,877C2084,873 2079,875 2079,881C2079,887 2084,893 2090,893C2095,893 2100,890 2100,888ZM2342,887C2342,884 2339,882 2336,882C2333,882 2331,884 2331,887C2331,890 2333,893 2336,893C2339,893 2342,890 2342,887ZM2163,877C2163,874 2161,872 2158,872C2155,872 2153,874 2153,877C2153,880 2155,882 2158,882C2161,882 2163,880 2163,877ZM2338,844C2334,840 2328,840 2324,844C2320,847 2323,851 2331,851C2339,851 2342,847 2338,844ZM2678,835C2678,832 2675,830 2672,830C2669,830 2667,832 2667,835C2667,838 2669,840 2672,840C2675,840 2678,838 2678,835ZM2531,825C2531,822 2526,817 2520,814C2514,810 2510,812 2510,818C2510,824 2514,830 2520,830C2526,830 2531,827 2531,825ZM2741,824C2741,821 2738,819 2735,819C2732,819 2730,821 2730,824C2730,827 2732,830 2735,830C2738,830 2741,827 2741,824ZM2447,814C2447,811 2444,809 2441,809C2438,809 2436,811 2436,814C2436,817 2438,819 2441,819C2444,819 2447,817 2447,814ZM2489,814C2489,811 2486,809 2483,809C2480,809 2478,811 2478,814C2478,817 2480,819 2483,819C2486,819 2489,817 2489,814ZM2888,814C2888,811 2885,809 2882,809C2879,809 2877,811 2877,814C2877,817 2879,819 2882,819C2885,819 2888,817 2888,814ZM3041,781C3038,777 3031,777 3028,781C3024,784 3027,788 3035,788C3042,788 3045,784 3041,781ZM3098,782C3098,779 3095,777 3092,777C3089,777 3087,779 3087,782C3087,785 3089,788 3092,788C3095,788 3098,785 3098,782ZM3986,770C3983,766 3980,769 3980,777C3980,785 3983,788 3986,784C3990,780 3990,774 3986,770ZM4128,763C4114,750 4100,760 4110,776C4114,783 4122,785 4128,781C4135,777 4135,771 4128,763ZM2751,772C2751,769 2749,767 2746,767C2743,767 2741,769 2741,772C2741,775 2743,777 2746,777C2749,777 2751,775 2751,772ZM3129,772C3129,769 3127,767 3124,767C3121,767 3119,769 3119,772C3119,775 3121,777 3124,777C3127,777 3129,775 3129,772ZM3272,770C3269,766 3262,766 3259,770C3255,774 3258,777 3266,777C3273,777 3276,774 3272,770ZM3308,772C3308,769 3305,767 3302,767C3299,767 3297,769 3297,772C3297,775 3299,777 3302,777C3305,777 3308,775 3308,772ZM3350,772C3350,769 3347,767 3344,767C3341,767 3339,769 3339,772C3339,775 3341,777 3344,777C3347,777 3350,775 3350,772ZM3377,760C3374,756 3371,759 3371,767C3371,774 3374,777 3377,773C3381,770 3381,763 3377,760ZM3507,772C3507,769 3505,767 3502,767C3499,767 3497,769 3497,772C3497,775 3499,777 3502,777C3505,777 3507,775 3507,772ZM3651,754C3647,746 3645,748 3644,760C3644,771 3646,778 3650,774C3653,771 3654,762 3651,754ZM3787,754C3784,746 3781,748 3781,760C3780,771 3783,778 3786,774C3790,771 3790,762 3787,754ZM3948,772C3948,769 3946,767 3943,767C3940,767 3938,769 3938,772C3938,775 3940,777 3943,777C3946,777 3948,775 3948,772ZM4018,770C4014,766 4008,766 4004,770C4000,774 4003,777 4011,777C4019,777 4022,774 4018,770ZM4043,772C4043,769 4040,767 4037,767C4034,767 4032,769 4032,772C4032,775 4034,777 4037,777C4040,777 4043,775 4043,772ZM4095,761C4095,753 4090,746 4085,746C4079,746 4077,753 4081,761C4084,770 4089,777 4091,777C4093,777 4095,770 4095,761ZM2867,761C2867,758 2864,756 2861,756C2858,756 2856,758 2856,761C2856,764 2858,767 2861,767C2864,767 2867,764 2867,761ZM3234,761C3234,758 3232,756 3229,756C3226,756 3224,758 3224,761C3224,764 3226,767 3229,767C3232,767 3234,764 3234,761ZM3570,761C3570,758 3568,756 3565,756C3562,756 3560,758 3560,761C3560,764 3562,767 3565,767C3568,767 3570,764 3570,761ZM3620,760C3616,757 3607,756 3600,759C3591,763 3594,765 3606,766C3617,766 3623,764 3620,760ZM3686,761C3686,758 3683,756 3680,756C3677,756 3675,758 3675,761C3675,764 3677,767 3680,767C3683,767 3686,764 3686,761ZM3722,756C3726,750 3722,748 3712,752C3694,759 3691,767 3706,767C3711,767 3719,762 3722,756ZM3749,761C3749,758 3746,756 3743,756C3740,756 3738,758 3738,761C3738,764 3740,767 3743,767C3746,767 3749,764 3749,761ZM3770,761C3770,758 3767,756 3764,756C3761,756 3759,758 3759,761C3759,764 3761,767 3764,767C3767,767 3770,764 3770,761ZM3287,751C3287,748 3284,746 3281,746C3278,746 3276,748 3276,751C3276,754 3278,756 3281,756C3284,756 3287,754 3287,751ZM3528,751C3528,748 3526,746 3523,746C3520,746 3518,748 3518,751C3518,754 3520,756 3523,756C3526,756 3528,754 3528,751ZM4253,751C4253,749 4247,743 4240,739C4233,735 4231,736 4236,744C4243,756 4253,760 4253,751ZM7088,740C7088,737 7085,735 7082,735C7079,735 7077,737 7077,740C7077,743 7079,746 7082,746C7085,746 7088,743 7088,740ZM4148,730C4148,727 4145,725 4142,725C4139,725 4137,727 4137,730C4137,733 4139,735 4142,735C4145,735 4148,733 4148,730ZM3696,719C3696,716 3694,714 3691,714C3688,714 3686,716 3686,719C3686,722 3688,725 3691,725C3694,725 3696,722 3696,719ZM3262,707C3258,703 3252,703 3248,707C3244,711 3247,714 3255,714C3263,714 3266,711 3262,707ZM3612,698C3612,695 3610,693 3607,693C3604,693 3602,695 3602,698C3602,701 3604,704 3607,704C3610,704 3612,701 3612,698ZM6531,583C6531,580 6529,578 6526,578C6523,578 6521,580 6521,583C6521,586 6523,588 6526,588C6529,588 6531,586 6531,583Z" style="fill:rgb(94,116,91);fill-rule:nonzero;"/>
    </g>
</svg>
