<?xml version="1.0" encoding="UTF-8" standalone="no"?>
<!DOCTYPE svg PUBLIC "-//W3C//DTD SVG 1.1//EN" "http://www.w3.org/Graphics/SVG/1.1/DTD/svg11.dtd">
<svg width="100%" height="100%" viewBox="0 0 638 47" version="1.1" xmlns="http://www.w3.org/2000/svg" xmlns:xlink="http://www.w3.org/1999/xlink" xml:space="preserve" xmlns:serif="http://www.serif.com/" style="fill-rule:evenodd;clip-rule:evenodd;stroke-linejoin:round;stroke-miterlimit:2;">
    <g transform="matrix(0.486485,-7.45016e-16,-7.45016e-16,-0.486485,-38.1866,162.74)">
        <path d="M448,334C447,333 427,330 421,330C375,331 267,328 263,326C262,325 253,324 242,324C218,322 205,321 193,320C188,319 177,318 168,318C132,316 109,314 106,313C105,312 99,311 94,311C83,311 76,306 80,302C81,300 82,297 82,294C82,289 84,283 88,278C88,277 97,276 108,276C123,276 126,276 127,273C127,263 136,255 145,256C155,258 167,259 180,260C186,261 192,262 193,262C194,262 200,263 207,264C213,265 220,266 220,266C221,267 226,268 232,268C237,269 246,270 252,271C257,272 264,273 267,273C280,273 309,276 310,277C311,278 324,279 339,279C354,279 368,281 370,282C373,283 374,283 374,282C373,281 380,281 390,281C454,284 478,283 468,279C466,278 465,276 465,273C465,270 465,269 468,270C469,271 471,270 472,268C474,266 477,265 486,266C493,266 499,267 500,267C500,268 505,268 510,268C536,269 536,269 537,273C538,276 538,276 538,273C538,271 540,269 542,269C544,269 544,270 544,271C542,274 543,274 550,271C553,270 556,270 558,271C560,272 566,272 571,271C577,270 580,271 582,273C583,274 585,275 587,274C588,273 592,272 595,273L622,273C625,272 630,273 633,275C635,277 637,277 637,276C637,275 641,274 645,274C650,274 651,274 650,276C649,277 650,278 652,276C656,274 670,273 671,276C672,277 675,276 678,275C681,274 683,274 684,274C685,275 686,274 688,273C691,270 697,273 697,278C697,281 698,282 698,280C700,275 701,274 726,275C739,275 750,274 752,273C754,271 754,272 754,274C754,276 755,276 756,273C758,271 758,271 758,273C758,275 760,275 764,275C767,274 770,274 772,275C774,277 775,277 776,276C777,274 779,273 780,273C782,273 783,274 782,276C781,277 781,278 783,276C785,275 788,275 791,275C793,275 797,275 799,274C801,273 805,273 809,273C814,274 816,274 817,273C817,271 818,271 818,273C818,275 819,275 821,274C824,272 899,271 909,273C913,274 917,274 918,274C919,273 940,271 967,271C974,270 980,270 980,269C981,268 987,268 994,268C1009,267 1016,266 1020,264C1021,263 1022,264 1022,265C1022,266 1023,267 1024,266C1026,265 1029,265 1031,265C1034,265 1036,264 1036,263C1036,261 1037,261 1039,263C1042,265 1042,265 1041,264C1040,262 1041,261 1043,261C1045,261 1046,262 1045,265C1044,268 1044,268 1047,264C1049,262 1051,261 1053,262L1057,262C1061,258 1089,255 1094,257C1097,259 1098,259 1097,257C1096,256 1098,255 1101,254C1104,254 1108,254 1108,256C1110,257 1110,257 1110,255C1110,254 1113,253 1116,253C1119,253 1122,252 1123,251C1124,250 1129,250 1134,249C1151,249 1177,247 1182,245C1185,245 1190,244 1194,243C1198,243 1203,241 1204,240C1205,239 1207,239 1208,240C1208,242 1212,242 1215,242C1221,241 1222,242 1225,246C1226,249 1227,253 1226,255C1226,257 1226,260 1228,261C1230,262 1231,264 1230,265C1229,267 1240,266 1246,263C1247,262 1250,262 1251,262C1253,262 1257,263 1261,263C1267,264 1267,264 1258,266C1253,267 1248,268 1247,269C1246,270 1243,271 1241,270C1239,270 1237,271 1237,272C1237,273 1237,273 1235,271C1234,269 1233,269 1233,271C1233,274 1233,274 1231,272C1228,269 1222,268 1221,271C1220,272 1215,273 1209,274C1203,275 1197,276 1196,277C1194,278 1193,278 1180,281C1170,283 1176,285 1192,285C1211,284 1251,281 1254,279C1254,279 1258,279 1262,278C1266,278 1270,278 1270,277C1271,277 1275,277 1279,276C1283,276 1294,275 1303,273C1313,271 1323,269 1327,269C1333,268 1348,263 1372,254C1380,251 1387,249 1388,249C1389,249 1388,261 1387,266C1386,268 1384,270 1382,270C1380,271 1376,275 1374,279C1371,283 1368,285 1367,285C1366,284 1362,286 1358,288C1353,290 1348,292 1345,293C1343,293 1340,294 1338,294C1330,297 1294,304 1281,305C1276,306 1266,307 1259,307C1241,309 1216,311 1197,312C1178,313 1160,314 1160,315C1160,315 1148,315 1134,316C1119,316 1106,317 1104,318C1103,318 1100,317 1099,315C1097,313 1096,312 1096,314C1096,315 1094,316 1092,315C1090,314 1089,315 1090,316C1092,318 1084,320 1073,320C1070,320 1065,321 1061,322C1056,323 1054,322 1054,320C1054,318 1054,318 1053,320C1052,321 1047,322 1041,322C1035,323 1029,323 1026,323C1010,324 999,322 1000,319C1001,318 1000,317 999,317C998,317 997,318 997,319C997,321 995,323 993,323C991,324 989,324 989,323C989,322 987,321 985,320C983,319 982,319 984,321C987,325 987,325 964,326C917,328 909,327 917,319C919,316 919,316 917,318C915,319 911,319 907,319C901,319 900,319 899,323C897,328 888,328 888,323C888,320 887,319 884,319C880,319 880,320 880,323C881,325 881,327 880,327C879,327 878,326 878,324C878,320 871,317 865,319C861,320 861,320 864,321C866,322 867,324 867,326C867,328 866,329 865,328C863,328 862,327 863,326C863,325 862,323 860,321C857,319 857,319 858,324C860,329 860,329 851,329C845,328 842,327 842,325C843,322 837,319 835,321C835,322 835,324 837,326C839,328 839,329 836,329C834,329 831,330 829,330C827,331 826,331 827,329C829,326 829,326 826,328C823,331 822,331 822,328C821,327 820,327 820,328C820,331 793,329 790,327C789,326 791,325 794,325C797,325 800,324 800,323C800,321 798,321 797,321C795,322 793,322 793,321C793,318 782,319 779,322C777,324 777,325 781,325C783,325 785,326 785,327C785,328 785,329 784,328C783,328 780,328 777,329C771,331 771,330 773,327C776,321 774,319 769,322C766,324 764,324 764,323C762,319 759,320 758,325C757,327 754,328 749,328C745,328 741,327 740,326C740,325 738,323 736,323C734,323 734,323 736,326C738,328 738,329 736,328C735,327 734,327 734,328C734,332 725,331 723,327C720,323 715,321 715,325C715,326 717,327 718,327C720,327 722,328 722,329C722,330 720,331 717,330C715,330 713,330 713,331C713,333 709,333 707,330C706,329 705,329 705,331C705,332 704,333 701,331C699,330 697,330 696,330C695,331 695,331 695,329C695,328 696,327 698,326C701,326 700,325 696,325C691,325 687,328 691,329C694,330 677,331 666,331C659,331 585,331 550,332C535,332 522,333 522,333C522,334 519,334 514,333C505,332 488,332 473,333C467,334 459,334 456,333C453,332 450,332 450,333C449,334 449,335 448,334ZM743,323C743,323 742,323 742,325C742,326 743,327 743,326C744,325 744,324 743,323ZM750,326C750,325 750,325 749,325C749,325 748,325 748,326L749,327C750,327 750,326 750,326ZM672,313C672,305 671,308 669,318C669,323 669,325 670,322C671,319 672,315 672,313ZM732,324C732,323 731,323 731,323C730,323 730,323 730,324C730,324 730,325 731,325L732,324ZM756,323L753,323C752,324 753,325 754,325C756,325 757,324 756,323ZM823,323C825,323 826,322 826,321C826,319 807,321 805,323C804,324 810,324 823,323ZM853,322C853,321 853,321 852,321C851,321 851,321 851,322C851,322 851,323 852,323C853,323 853,322 853,322ZM896,322C896,321 895,320 894,320C893,319 892,319 892,321C892,322 893,323 894,323C895,323 896,322 896,322ZM924,321C925,320 924,319 923,319C922,319 921,320 921,321C921,322 921,323 922,323C922,323 923,322 924,321ZM934,321C935,320 934,319 931,319C929,319 927,320 928,321C929,322 930,323 931,323C932,323 934,322 934,321ZM955,319C954,319 954,319 954,321C954,322 954,323 955,322C956,321 956,320 955,319ZM389,320C389,319 388,319 387,319C387,319 386,319 386,320L387,321C388,321 389,320 389,320ZM939,320C939,319 939,319 938,319C938,319 937,319 937,320L938,321C939,321 939,320 939,320ZM945,319L942,319C941,320 942,321 944,321C945,321 946,320 945,319ZM962,319C962,317 962,317 961,317C961,317 960,317 959,319C958,320 959,321 960,321C961,321 962,320 962,319ZM968,320C968,319 968,319 967,319C967,319 966,319 966,320L967,321C968,321 968,320 968,320ZM1023,319C1023,317 1022,316 1021,315C1017,314 1014,315 1016,318C1018,321 1021,321 1023,319ZM779,318C779,317 779,317 778,317C777,317 777,317 777,318C777,318 777,319 778,319C779,319 779,318 779,318ZM972,318C972,317 972,317 971,317C971,317 970,317 970,318L971,319C972,319 972,318 972,318ZM976,318C976,317 976,317 975,317C975,317 974,317 974,318L975,319C976,319 976,318 976,318ZM981,318C981,317 980,317 979,317C979,317 978,317 978,318L979,319C980,319 981,318 981,318ZM995,317C995,315 994,315 994,315C993,315 993,315 992,317C991,318 992,319 993,319C994,319 995,318 995,317ZM1007,318C1007,317 1007,317 1006,317C1006,317 1005,317 1005,318L1006,319C1007,319 1007,318 1007,318ZM1011,315C1010,314 1009,315 1009,317C1009,318 1010,319 1011,318L1011,315ZM773,316C773,315 772,315 772,315C771,315 771,315 771,316C771,316 771,317 772,317L773,316ZM822,316C822,315 822,315 821,315C821,315 820,315 820,316L821,317C822,317 822,316 822,316ZM874,313C872,312 870,311 869,312C868,313 868,314 871,315C876,317 876,317 874,313ZM900,316C900,315 900,315 899,315C899,315 898,315 898,316L899,317C900,317 900,316 900,316ZM956,316C956,315 955,315 955,315C954,315 954,315 954,316C954,316 954,317 955,317L956,316ZM1028,316C1028,315 1027,315 1027,315C1026,315 1026,315 1026,316C1026,316 1026,317 1027,317L1028,316ZM1032,316C1032,315 1031,315 1031,315C1030,315 1030,315 1030,316C1030,316 1030,317 1031,317L1032,316ZM1036,316C1036,315 1036,315 1035,315C1034,315 1034,315 1034,316C1034,316 1034,317 1035,317C1036,317 1036,316 1036,316ZM847,313L846,312C845,312 845,313 845,313C845,314 845,315 846,315C846,315 847,314 847,313ZM1060,311C1059,310 1059,311 1059,312C1059,314 1059,315 1060,314C1061,313 1061,312 1060,311ZM1087,312C1087,311 1087,310 1086,310C1086,310 1085,311 1084,312C1084,314 1084,315 1085,315C1086,315 1087,314 1087,312ZM1114,311C1114,311 1114,310 1113,310L1112,311C1112,312 1113,312 1113,312C1114,312 1114,312 1114,311ZM1145,311L1144,310C1143,310 1143,311 1143,311C1143,312 1143,312 1144,312C1144,312 1145,312 1145,311ZM867,309C867,309 867,308 866,308L865,309C865,310 866,310 866,310C867,310 867,310 867,309ZM1112,307C1112,307 1112,306 1111,306C1110,306 1110,307 1110,307C1110,308 1110,308 1111,308C1112,308 1112,308 1112,307ZM1036,305C1036,305 1036,304 1035,304C1034,304 1034,305 1034,305C1034,306 1034,306 1035,306C1036,306 1036,306 1036,305ZM662,303L661,302C660,302 660,303 660,303C660,304 660,304 661,304C661,304 662,304 662,303ZM666,303C666,303 666,302 665,302C664,302 664,303 664,303C664,304 664,304 665,304C666,304 666,304 666,303ZM627,301L626,300C625,300 625,301 625,301C625,302 625,302 626,302C626,302 627,302 627,301ZM845,301L844,300C843,300 843,301 843,301C843,302 843,302 844,302C844,302 845,302 845,301ZM1048,300C1048,299 1048,298 1047,298C1047,298 1046,299 1045,300C1045,301 1045,302 1046,302C1047,302 1048,301 1048,300ZM1059,301L1058,300C1057,300 1057,301 1057,301C1057,302 1057,302 1058,302C1058,302 1059,302 1059,301ZM660,299L659,298C658,298 658,299 658,299C658,300 658,300 659,300C659,300 660,300 660,299ZM1254,299L1253,298C1252,298 1252,299 1252,299C1252,300 1252,300 1253,300C1253,300 1254,300 1254,299ZM855,297C855,296 855,296 854,296C854,296 853,296 853,297C853,298 854,298 854,298C855,298 855,298 855,297ZM1085,297C1085,296 1085,296 1084,296C1084,296 1083,296 1083,297C1083,298 1084,298 1084,298C1085,298 1085,298 1085,297ZM664,295C664,294 663,294 663,294C662,294 662,294 662,295C662,296 662,296 663,296C663,296 664,296 664,295ZM469,293C469,292 468,292 468,292C467,292 467,292 467,293C467,293 467,294 468,294L469,293ZM1161,286L1158,286C1157,287 1158,288 1159,288C1161,288 1161,287 1161,286ZM699,285C699,284 698,284 698,284C697,284 697,284 697,285C697,285 697,286 698,286L699,285ZM1166,285C1166,284 1165,284 1164,284C1164,284 1163,284 1163,285L1164,286C1165,286 1166,285 1166,285ZM475,283C475,282 474,282 474,282C473,282 473,282 473,283C473,283 473,284 474,284L475,283ZM771,279C771,278 770,278 770,278C769,278 769,278 769,279C769,279 769,280 770,280L771,279ZM818,279C818,278 818,278 817,278C817,278 816,278 816,279L817,280C818,280 818,279 818,279ZM837,274L836,273C835,273 835,274 835,274C835,275 835,275 836,275C836,275 837,275 837,274ZM1030,268C1030,268 1029,267 1027,266C1026,265 1026,265 1027,267C1028,269 1030,270 1030,268ZM1226,266C1226,265 1224,265 1224,266C1223,267 1224,267 1225,267C1227,267 1227,267 1226,266ZM1073,260C1073,259 1073,259 1072,259C1071,259 1071,259 1071,260C1071,261 1071,261 1072,261C1073,261 1073,261 1073,260ZM1116,257C1116,256 1116,255 1115,255C1115,255 1114,256 1113,257C1112,258 1113,259 1114,259C1115,259 1116,258 1116,257Z" style="fill:rgb(122,150,118);fill-rule:nonzero;"/>
        <path d="M759,328C759,327 759,327 760,327C760,327 761,327 761,328L760,329C759,329 759,328 759,328Z" style="fill:rgb(122,150,118);fill-rule:nonzero;"/>
        <path d="M765,328C765,327 765,327 766,327C766,327 767,327 767,328L766,329C765,329 765,328 765,328Z" style="fill:rgb(122,150,118);fill-rule:nonzero;"/>
        <path d="M901,325C900,324 900,322 901,321C902,321 902,321 902,322C902,324 903,324 906,323C910,321 913,322 913,325C913,328 902,328 901,325ZM911,324C911,323 910,323 910,323C909,323 909,323 909,324C909,324 909,325 910,325L911,324Z" style="fill:rgb(122,150,118);fill-rule:nonzero;"/>
        <path d="M871,325C873,325 874,325 875,326C876,326 875,327 872,327C870,327 870,326 871,325Z" style="fill:rgb(122,150,118);fill-rule:nonzero;"/>
        <path d="M465,266C465,266 465,265 466,265L467,266C467,267 466,267 466,267C465,267 465,267 465,266Z" style="fill:rgb(122,150,118);fill-rule:nonzero;"/>
        <path d="M469,266C469,266 469,265 470,265L471,266C471,267 470,267 470,267C469,267 469,267 469,266Z" style="fill:rgb(122,150,118);fill-rule:nonzero;"/>
        <path d="M1231,261C1231,258 1237,257 1238,260C1239,262 1238,263 1235,263C1233,262 1231,262 1231,261Z" style="fill:rgb(122,150,118);fill-rule:nonzero;"/>
        <path d="M1256,260C1256,259 1256,259 1257,259C1258,259 1258,259 1258,260C1258,261 1258,261 1257,261C1256,261 1256,261 1256,260Z" style="fill:rgb(122,150,118);fill-rule:nonzero;"/>
        <path d="M1240,258C1241,257 1242,257 1243,258C1244,258 1243,259 1242,259C1240,259 1239,258 1240,258Z" style="fill:rgb(122,150,118);fill-rule:nonzero;"/>
        <path d="M1250,256C1251,255 1252,255 1253,256C1254,256 1253,257 1252,257C1250,257 1250,256 1250,256Z" style="fill:rgb(122,150,118);fill-rule:nonzero;"/>
    </g>
</svg>
